<svg xmlns="http://www.w3.org/2000/svg" viewBox="0 0 426.84 292.06">
  <defs>
    <style>
      .cls-1 {
        opacity: 0.24;
      }

      .cls-2, .cls-3, .cls-5 {
        fill: #fff;
      }

      .cls-3 {
        opacity: 0.85;
      }

      .cls-4 {
        opacity: 0.29;
      }

      .cls-5 {
        opacity: 0.56;
      }
    </style>
  </defs>
  <title>资源 1</title>
  <g id="图层_2" data-name="图层 2">
    <g id="Icons">
      <g class="cls-1">
        <path class="cls-2" d="M101.88,112.85h-13a11.12,11.12,0,0,1,0-22.23h57a11.12,11.12,0,1,0,0-22.23H11.11a11.12,11.12,0,0,0,0,22.23H55.57a11.12,11.12,0,0,1,0,22.23H44.46a11.11,11.11,0,1,0,0,22.22h57.42a11.11,11.11,0,1,0,0-22.22Z"/>
        <path class="cls-2" d="M130.13,23.93H102.34a11.12,11.12,0,0,0,0,22.23h27.79a11.12,11.12,0,0,0,0-22.23Z"/>
        <path class="cls-2" d="M415.73,146.19h-38.9a11.12,11.12,0,1,1,0-22.23h11.11a11.12,11.12,0,1,0,0-22.23H285.14a11.12,11.12,0,1,0,0,22.23h58.35a11.12,11.12,0,0,1,0,22.23H332.37a11.12,11.12,0,0,0,0,22.23h83.36a11.12,11.12,0,0,0,0-22.23Z"/>
      </g>
      <g>
        <path class="cls-3" d="M253.77,30.23c0,3.72-.39,7.49.08,11.15,1,7.49-2.88,11.49-9.21,14a2.05,2.05,0,0,0-1.54,2.29q.08,32,0,64c0,1.22.24,1.84,1.5,2.3,37.16,13.53,61,50.9,56.91,89.15-4.39,41.09-34.18,72.32-74.56,78.15-43.23,6.24-85.18-22.12-95.78-64.75A86.66,86.66,0,0,1,185.55,124a2.33,2.33,0,0,0,1.81-2.65q-.08-31.63,0-63.26c0-1.49-.32-2.31-1.81-2.89-6.09-2.35-9.39-6.21-8.93-13.42.57-9-.16-18.07.12-27.09C176.92,8.75,182,6.61,186.5,5a85.11,85.11,0,0,1,56.76-.28c9.17,3.09,10.51,5.65,10.51,15.22ZM144.22,188.41c-1.56,3.78-1.69,7.82-2,11.79A73.16,73.16,0,0,0,281.6,236.14a70.8,70.8,0,0,0,4.76-47.6,7.17,7.17,0,0,0-.14-1q-11.58-40.94-52.41-52.92c-1.63-.47-2-1.19-2-2.81q.09-35.34,0-70.69c0-1.08.23-2.2-1.58-1.88a90.63,90.63,0,0,1-29.49.14c-2.23-.34-2.29.37-2.29,2.09q.06,35.44,0,70.88c0,1.07,0,1.8-1.38,2.15a72.16,72.16,0,0,0-38.74,24.86C151.42,167.91,146.39,177.47,144.22,188.41ZM185.8,32.93c-.1,11.1.63,12.69,8.34,15.17a66.94,66.94,0,0,0,40.82.4c8.66-2.64,9.95-4.66,9.95-13.62,0-3.13-.08-6.26,0-9.39.06-1.69-.42-1.79-1.89-1.3-16.15,5.46-32.55,5.66-49.08,2-2.74-.6-5.45-1.41-8.17-2.13Zm29.48-13.86c5.82.14,11.54-.4,16.84-3,3.51-1.75,4-5,.84-6.4-11.64-5.29-23.44-5.16-35.2-.24a3.33,3.33,0,0,0-2.33,3.25c.13,1.52,1.28,2.52,2.69,3.26C203.52,18.72,209.35,19.13,215.28,19.07Z"/>
        <g class="cls-4">
          <path class="cls-2" d="M286.36,188.54c-11.4-5.71-23.85-6.94-36.21-8.06-29.14-2.66-58.26-2.5-87.21,2.32-6.46,1.07-12.83,2.56-18.72,5.61,2.17-10.94,7.2-20.5,14.15-29.1a72.16,72.16,0,0,1,38.74-24.86c1.35-.35,1.38-1.08,1.38-2.15q0-35.45,0-70.88c0-1.72.06-2.43,2.29-2.09a90.63,90.63,0,0,0,29.49-.14c1.81-.32,1.58.8,1.58,1.88q0,35.34,0,70.69c0,1.62.41,2.34,2,2.81q40.83,12,52.41,52.92A7.17,7.17,0,0,1,286.36,188.54Zm-61.52-51.31a2.33,2.33,0,0,0,.18-.52c.38-23.5.91-47,.9-70.49,0-2.66-4.15-.85-6.29-1.51-1.78-.55-2.11.13-1.89,1.93.78,6.5,1.35,13,2,19.53C221.43,103.12,223.12,120.06,224.84,137.23Z"/>
          <path class="cls-2" d="M185.8,32.93V24.08c2.72.72,5.43,1.53,8.17,2.13,16.53,3.64,32.93,3.44,49.08-2,1.47-.49,1.95-.39,1.89,1.3-.11,3.13,0,6.26,0,9.39,0,9-1.29,11-9.95,13.62a66.94,66.94,0,0,1-40.82-.4C186.43,45.62,185.7,44,185.8,32.93Z"/>
          <path class="cls-2" d="M215.28,19.07c-5.93.06-11.76-.35-17.16-3.17-1.41-.74-2.56-1.74-2.69-3.26a3.33,3.33,0,0,1,2.33-3.25c11.76-4.92,23.56-5.05,35.2.24,3.16,1.45,2.67,4.65-.84,6.4C226.82,18.67,221.1,19.21,215.28,19.07Z"/>
        </g>
      </g>
      <path class="cls-5" d="M286.36,188.54c-11.4-5.71-23.85-6.94-36.21-8.06-29.14-2.66-58.26-2.5-87.21,2.32-6.46,1.07-12.83,2.56-18.72,5.61-1.56,3.78-1.69,7.82-2,11.79A73.16,73.16,0,0,0,281.6,236.14,70.8,70.8,0,0,0,286.36,188.54ZM215,265.84a59,59,0,0,1-51.81-30.74,67.55,67.55,0,0,0,110.24-36.62,60.42,60.42,0,0,1,.59,8.34A59,59,0,0,1,215,265.84Z"/>
    </g>
  </g>
</svg>
